<svg xmlns="http://www.w3.org/2000/svg" width="1600" height="900" viewBox="0 0 1600 900">
  <defs>
    <linearGradient id="g" x1="0" y1="0" x2="1" y2="1">
      <stop offset="0" stop-color="#0a0f0d"/>
      <stop offset="1" stop-color="#101815"/>
    </linearGradient>
    <radialGradient id="r" cx="30%" cy="35%" r="70%">
      <stop offset="0" stop-color="#c5a059" stop-opacity="0.25"/>
      <stop offset="0.55" stop-color="#4f7942" stop-opacity="0.10"/>
      <stop offset="1" stop-color="#000000" stop-opacity="0"/>
    </radialGradient>
    <filter id="n" x="-20%" y="-20%" width="140%" height="140%">
      <feTurbulence type="fractalNoise" baseFrequency="0.7" numOctaves="2" stitchTiles="stitch" />
      <feColorMatrix type="matrix" values="
        1 0 0 0 0
        0 1 0 0 0
        0 0 1 0 0
        0 0 0 0.18 0"/>
    </filter>
  </defs>
  <rect width="1600" height="900" fill="url(#g)"/>
  <rect width="1600" height="900" fill="url(#r)"/>
  <rect width="1600" height="900" filter="url(#n)" opacity="0.45"/>

  <!-- rough "before renovation" scene -->
  <rect x="140" y="150" width="1320" height="620" rx="18" fill="#ffffff" fill-opacity="0.04" stroke="#ffffff" stroke-opacity="0.12" stroke-width="2"/>
  <path d="M210 650 L520 360 L780 560 L1030 320 L1320 520" fill="none" stroke="#ffffff" stroke-opacity="0.14" stroke-width="10" stroke-linecap="round" stroke-linejoin="round"/>
  <path d="M240 620 L520 360 L790 550 L1030 320 L1310 510" fill="none" stroke="#ffffff" stroke-opacity="0.08" stroke-width="3" stroke-linecap="round" stroke-linejoin="round"/>

  <g fill="#ffffff" fill-opacity="0.10">
    <rect x="240" y="220" width="420" height="18" rx="9"/>
    <rect x="240" y="254" width="540" height="12" rx="6"/>
    <rect x="240" y="276" width="500" height="12" rx="6"/>
  </g>

  <g>
    <circle cx="520" cy="360" r="10" fill="#C5A059" fill-opacity="0.92"/>
    <circle cx="1030" cy="320" r="10" fill="#C5A059" fill-opacity="0.92"/>
    <circle cx="1320" cy="520" r="10" fill="#C5A059" fill-opacity="0.92"/>
    <circle cx="780" cy="560" r="10" fill="#C5A059" fill-opacity="0.92"/>
  </g>

  <g font-family="ui-sans-serif, system-ui, -apple-system, Segoe UI, Inter, Arial" fill="#ffffff" fill-opacity="0.78">
    <text x="240" y="735" font-size="28" font-weight="700">ДО РЕМОНТА</text>
    <text x="240" y="770" font-size="18" opacity="0.75">неидеальная геометрия • скрытые дефекты • “сюрпризы”</text>
  </g>
</svg>

